<svg width="200" height="200" viewBox="0 0 200 200" fill="none" xmlns="http://www.w3.org/2000/svg">
<rect width="200" height="200" rx="50" fill="url(#paint0_linear_109_6)"/>
<path d="M27.419 154.983C25.607 153.976 24.6003 152.869 24.399 151.661C24.2983 150.453 25.003 148.339 26.513 145.319C28.023 142.299 30.3887 137.618 33.61 131.276C36.026 126.746 37.838 123.223 39.046 120.706C40.3547 118.089 41.2103 116.226 41.613 115.119C42.1163 114.012 42.368 113.307 42.368 113.005C42.1667 112.099 42.2673 111.394 42.67 110.891C43.0727 110.287 43.727 109.784 44.633 109.381C45.1363 108.878 45.9417 107.972 47.049 106.663C48.257 105.354 49.3643 103.794 50.371 101.982C51.277 99.868 52.334 97.7037 53.542 95.489C54.75 93.2743 56.3607 90.506 58.374 87.184C60.3873 83.7613 63.0047 79.332 66.226 73.896C68.2393 70.3727 70.454 66.799 72.87 63.175C75.286 59.4503 77.853 55.776 80.571 52.152C81.6783 50.7427 82.685 49.6353 83.591 48.83C84.497 47.924 85.403 47.5213 86.309 47.622C87.517 47.622 88.876 48.0247 90.386 48.83C91.9967 49.6353 93.4563 50.6923 94.765 52.001C96.0737 53.3097 97.03 54.719 97.634 56.229C98.1373 57.0343 98.3387 58.7457 98.238 61.363C98.1373 63.9803 97.936 67.1513 97.634 70.876C97.332 74.6007 96.9797 78.577 96.577 82.805C96.275 86.9323 95.822 91.8147 95.218 97.452C94.614 103.089 94.01 108.978 93.406 115.119C92.9027 121.26 92.5 127.199 92.198 132.937C91.896 138.574 91.896 143.507 92.198 147.735C92.2987 148.641 92.2987 149.497 92.198 150.302C92.0973 151.107 92.047 151.762 92.047 152.265C91.443 152.869 90.4363 153.121 89.027 153.02C87.7183 153.02 86.4097 152.718 85.101 152.114C83.893 151.51 83.1883 150.755 82.987 149.849C82.685 149.547 82.4837 149.144 82.383 148.641C82.383 148.037 82.4333 146.829 82.534 145.017C82.6347 143.205 82.7353 140.336 82.836 136.41L83.591 111.948L81.628 112.099C80.722 112.099 79.0107 112.2 76.494 112.401C73.9773 112.602 71.2593 112.904 68.34 113.307C65.4207 113.609 62.7027 113.961 60.186 114.364C57.77 114.666 56.109 114.968 55.203 115.27C54.297 115.27 53.1897 115.874 51.881 117.082C50.673 118.29 49.5153 119.85 48.408 121.763C48.0053 123.172 47.2503 124.682 46.143 126.293C45.1363 127.803 44.633 128.81 44.633 129.313C43.9283 129.816 43.3243 130.42 42.821 131.125C42.4183 131.83 42.217 132.182 42.217 132.182C42.217 132.786 41.7137 134.296 40.707 136.712C39.801 139.027 38.6433 141.645 37.234 144.564C35.8247 147.383 34.4153 149.849 33.006 151.963L29.835 156.795L27.419 154.983ZM58.676 106.361C58.676 106.361 59.1793 106.26 60.186 106.059C61.2933 105.858 62.5517 105.656 63.961 105.455C65.471 105.153 66.83 105.002 68.038 105.002C72.266 103.995 75.3363 103.341 77.249 103.039C79.1617 102.636 80.4703 102.435 81.175 102.435C81.9803 102.435 82.685 102.586 83.289 102.888C83.6917 103.391 84.044 103.693 84.346 103.794C84.7487 103.895 84.95 103.945 84.95 103.945C85.0507 103.744 85.2017 102.586 85.403 100.472C85.6043 98.358 85.856 95.7407 86.158 92.62C86.5607 89.4993 86.913 86.278 87.215 82.956C87.6177 79.5333 87.9197 76.4127 88.121 73.594C88.3223 70.6747 88.4733 68.46 88.574 66.95C88.6747 65.0373 88.7753 63.326 88.876 61.816C88.9767 60.2053 89.027 59.4 89.027 59.4C88.423 59.4 87.1143 60.5073 85.101 62.722C83.1883 64.9367 81.024 67.856 78.608 71.48C76.192 75.104 73.927 78.9797 71.813 83.107C70.8063 85.0197 69.85 86.731 68.944 88.241C68.038 89.751 67.3333 90.506 66.83 90.506C66.6287 90.7073 66.0247 91.6133 65.018 93.224C64.112 94.734 63.1053 96.4957 61.998 98.509C60.8907 100.422 59.9847 102.183 59.28 103.794C58.5753 105.304 58.374 106.16 58.676 106.361ZM125.84 157.55C124.028 157.047 122.569 156.594 121.461 156.191C120.354 155.889 119.8 155.738 119.8 155.738C120.002 155.235 119.901 154.782 119.498 154.379C119.196 153.976 118.492 153.725 117.384 153.624C115.874 152.718 114.465 151.56 113.156 150.151C111.948 148.842 110.942 147.534 110.136 146.225C109.331 144.916 108.727 143.809 108.324 142.903C107.62 141.393 107.267 140.487 107.267 140.185C107.368 139.782 107.972 139.329 109.079 138.826C110.187 138.021 110.992 137.769 111.495 138.071C112.099 138.373 112.804 139.38 113.609 141.091C114.918 143.406 117.133 145.168 120.253 146.376C123.475 147.584 127.048 148.138 130.974 148.037C135.001 147.836 138.826 146.93 142.45 145.319C146.175 143.809 148.49 142.249 149.396 140.638C150.403 138.927 150.051 136.762 148.339 134.145C148.037 133.34 147.685 132.685 147.282 132.182C146.88 131.679 146.225 131.024 145.319 130.219C144.514 129.414 143.155 128.105 141.242 126.293C139.732 125.588 138.323 124.934 137.014 124.33C135.806 123.726 134.498 123.072 133.088 122.367C131.478 121.562 129.515 120.404 127.199 118.894C124.985 117.283 122.871 115.522 120.857 113.609C118.844 111.696 117.384 109.935 116.478 108.324C114.868 106.814 113.66 104.75 112.854 102.133C112.049 99.415 111.747 96.546 111.948 93.526C112.15 90.506 112.905 87.788 114.213 85.372C114.817 83.9627 115.824 82.2513 117.233 80.238C118.743 78.124 120.404 76.01 122.216 73.896C124.028 71.782 125.79 69.8693 127.501 68.158C129.213 66.4467 130.622 65.2387 131.729 64.534C132.535 63.7287 133.39 62.9233 134.296 62.118C135.202 61.212 135.655 60.759 135.655 60.759C135.756 60.2557 135.907 60.004 136.108 60.004C136.41 60.004 136.561 60.004 136.561 60.004C137.065 59.702 138.172 59.1987 139.883 58.494C141.595 57.7893 143.457 56.4807 145.47 54.568C152.215 51.3467 157.701 48.981 161.929 47.471C166.157 45.961 169.63 45.206 172.348 45.206C174.865 45.3067 177.13 45.9107 179.143 47.018C181.257 48.0247 182.969 49.3837 184.277 51.095C185.687 52.8063 186.542 54.87 186.844 57.286C187.549 59.702 187.348 62.5207 186.24 65.742C185.133 68.8627 183.472 71.8323 181.257 74.651C179.143 77.369 176.828 79.4327 174.311 80.842C171.493 82.05 169.58 82.6037 168.573 82.503C167.667 82.3017 167.265 81.2447 167.365 79.332C167.365 78.5267 167.617 77.5703 168.12 76.463C168.724 75.3557 170.285 73.3927 172.801 70.574C176.023 65.8427 177.986 62.0677 178.69 59.249C179.395 56.4303 178.741 54.87 176.727 54.568C176.123 54.3667 175.016 54.3667 173.405 54.568C171.895 54.7693 170.184 55.0713 168.271 55.474C166.459 55.776 164.899 56.1283 163.59 56.531C162.282 56.833 161.627 57.0847 161.627 57.286C161.627 57.286 161.627 57.437 161.627 57.739C161.627 58.041 161.426 58.1417 161.023 58.041C160.822 58.041 159.966 58.4437 158.456 59.249C156.946 60.0543 155.134 61.1113 153.02 62.42C150.906 63.7287 148.792 65.0373 146.678 66.346C144.564 67.6547 142.752 68.8123 141.242 69.819C139.833 70.725 139.078 71.2787 138.977 71.48C138.776 72.5873 137.618 73.594 135.504 74.5C133.491 75.708 131.629 77.4697 129.917 79.785C128.307 82.1003 126.495 84.9693 124.481 88.392C122.77 90.7073 121.562 93.224 120.857 95.942C120.153 98.5593 120.153 100.673 120.857 102.284C121.361 103.895 122.921 105.958 125.538 108.475C128.156 110.992 131.427 113.408 135.353 115.723C138.776 117.636 141.846 119.548 144.564 121.461C147.282 123.273 149.497 125.035 151.208 126.746C153.02 128.457 154.228 129.967 154.832 131.276C156.04 132.987 156.896 134.749 157.399 136.561C158.003 138.272 158.305 139.933 158.305 141.544C158.406 143.155 158.255 144.614 157.852 145.923C157.148 147.534 155.889 149.195 154.077 150.906C152.366 152.617 150.906 153.423 149.698 153.322C148.591 153.624 147.735 153.976 147.131 154.379C146.628 154.782 146.024 155.134 145.319 155.436C144.615 155.839 143.105 156.241 140.789 156.644C138.575 157.047 136.108 157.298 133.39 157.399C130.672 157.6 128.156 157.651 125.84 157.55Z" fill="white"/>
<defs>
<linearGradient id="paint0_linear_109_6" x1="100" y1="115.5" x2="243.5" y2="-66" gradientUnits="userSpaceOnUse">
<stop stop-color="#7B2DE8"/>
<stop offset="1"/>
</linearGradient>
</defs>
</svg>
